# xmcd CD database file
#
# Track frame offsets:
#	150
#	20025
#	40225
#	61350
#	78712
#	97362
#	113450
#	135337
#	153925
#	172187
#	192325
#	209712
#	228225
#	248037
#	268925
#	286412
#
# Disc length: 4101 seconds
#
# Revision: 0
# Processed by: cddbd v1.5.1PL0 Copyright (c) Steve Scherf et al.
# Submitted via: CDex 1.40Release
#
DISCID=ec100310
DTITLE=瀬川瑛子 - 瀬川瑛子全曲集／おんなの忠臣蔵〜とんぼり
DYEAR=1991
DGENRE=Easy Listening
TTITLE0=おんなの忠臣蔵
TTITLE1=海の城下町
TTITLE2=潮騒の町
TTITLE3=矢切りの渡し
TTITLE4=小田原最終便
TTITLE5=長崎の夜はむらさき
TTITLE6=春の海
TTITLE7=涙は女の化粧水
TTITLE8=とんぼり
TTITLE9=命くれない
TTITLE10=おとこの忠臣蔵
TTITLE11=見返り橋
TTITLE12=酒場手毬りうた
TTITLE13=憂き世川
TTITLE14=わすれ宿
TTITLE15=忘れ傘
EXTD=YEAR: 1991 ID3G: 98
EXTT0=
EXTT1=
EXTT2=
EXTT3=
EXTT4=
EXTT5=
EXTT6=
EXTT7=
EXTT8=
EXTT9=
EXTT10=
EXTT11=
EXTT12=
EXTT13=
EXTT14=
EXTT15=
PLAYORDER=
